<?xml version="1.0" encoding="UTF-8" standalone="no"?>
<!-- Created with Inkscape (http://www.inkscape.org/) -->

<svg
   xmlns:dc="http://purl.org/dc/elements/1.1/"
   xmlns:cc="http://creativecommons.org/ns#"
   xmlns:rdf="http://www.w3.org/1999/02/22-rdf-syntax-ns#"
   xmlns:svg="http://www.w3.org/2000/svg"
   xmlns="http://www.w3.org/2000/svg"
   xmlns:xlink="http://www.w3.org/1999/xlink"
   xmlns:sodipodi="http://sodipodi.sourceforge.net/DTD/sodipodi-0.dtd"
   xmlns:inkscape="http://www.inkscape.org/namespaces/inkscape"
   width="744.09448819"
   height="1052.3622047"
   id="svg2"
   version="1.1"
   inkscape:version="0.48.2 r9819"
   sodipodi:docname="ships.svg">
  <defs
     id="defs4">
    <linearGradient
       id="linearGradient3828">
      <stop
         style="stop-color:#ffff00;stop-opacity:1;"
         offset="0"
         id="stop3830" />
      <stop
         style="stop-color:#ff0000;stop-opacity:0.51304346;"
         offset="1"
         id="stop3832" />
    </linearGradient>
    <linearGradient
       inkscape:collect="always"
       id="linearGradient3916">
      <stop
         style="stop-color:#ffeeaa;stop-opacity:1;"
         offset="0"
         id="stop3918" />
      <stop
         style="stop-color:#ffeeaa;stop-opacity:0;"
         offset="1"
         id="stop3920" />
    </linearGradient>
    <linearGradient
       inkscape:collect="always"
       xlink:href="#linearGradient3916"
       id="linearGradient3928"
       gradientUnits="userSpaceOnUse"
       x1="193.44421"
       y1="126.55738"
       x2="243.95184"
       y2="126.55738" />
    <filter
       inkscape:collect="always"
       id="filter3846">
      <feGaussianBlur
         inkscape:collect="always"
         stdDeviation="1.7311301"
         id="feGaussianBlur3848" />
    </filter>
    <radialGradient
       inkscape:collect="always"
       xlink:href="#linearGradient3828"
       id="radialGradient3873"
       gradientUnits="userSpaceOnUse"
       gradientTransform="matrix(0.98952486,-0.81985587,0.8253467,0.99615203,-109.00576,462.54333)"
       cx="563.52295"
       cy="139.22481"
       fx="563.52295"
       fy="139.22481"
       r="35.685974" />
    <radialGradient
       inkscape:collect="always"
       xlink:href="#linearGradient3828"
       id="radialGradient3875"
       gradientUnits="userSpaceOnUse"
       gradientTransform="matrix(0.98952486,-0.81985587,0.8253467,0.99615203,-109.00576,462.54333)"
       cx="563.52295"
       cy="139.22481"
       fx="563.52295"
       fy="139.22481"
       r="35.685974" />
    <radialGradient
       inkscape:collect="always"
       xlink:href="#linearGradient3828"
       id="radialGradient3877"
       gradientUnits="userSpaceOnUse"
       gradientTransform="matrix(0.98952486,-0.81985587,0.8253467,0.99615203,-109.00576,462.54333)"
       cx="563.52295"
       cy="139.22481"
       fx="563.52295"
       fy="139.22481"
       r="35.685974" />
    <radialGradient
       inkscape:collect="always"
       xlink:href="#linearGradient3828"
       id="radialGradient3879"
       gradientUnits="userSpaceOnUse"
       gradientTransform="matrix(0.98952486,-0.81985587,0.8253467,0.99615203,-109.00576,462.54333)"
       cx="563.52295"
       cy="139.22481"
       fx="563.52295"
       fy="139.22481"
       r="35.685974" />
    <radialGradient
       inkscape:collect="always"
       xlink:href="#linearGradient3828"
       id="radialGradient3881"
       gradientUnits="userSpaceOnUse"
       gradientTransform="matrix(0.98952486,-0.81985587,0.8253467,0.99615203,-109.00576,462.54333)"
       cx="563.52295"
       cy="139.22481"
       fx="563.52295"
       fy="139.22481"
       r="35.685974" />
    <filter
       inkscape:collect="always"
       id="filter5009">
      <feGaussianBlur
         inkscape:collect="always"
         stdDeviation="2.3191805"
         id="feGaussianBlur5011" />
    </filter>
    <filter
       inkscape:collect="always"
       id="filter5077">
      <feGaussianBlur
         inkscape:collect="always"
         stdDeviation="3.2173359"
         id="feGaussianBlur5079" />
    </filter>
    <filter
       inkscape:collect="always"
       id="filter5085">
      <feGaussianBlur
         inkscape:collect="always"
         stdDeviation="3.6769553"
         id="feGaussianBlur5087" />
    </filter>
    <filter
       inkscape:collect="always"
       id="filter5111"
       x="-0.168"
       width="1.336"
       y="-0.168"
       height="1.336">
      <feGaussianBlur
         inkscape:collect="always"
         stdDeviation="6.4346717"
         id="feGaussianBlur5113" />
    </filter>
    <filter
       inkscape:collect="always"
       id="filter3883"
       x="-0.1118644"
       width="1.2237288"
       y="-0.11186442"
       height="1.2237288">
      <feGaussianBlur
         inkscape:collect="always"
         stdDeviation="2.8704845"
         id="feGaussianBlur3885" />
    </filter>
  </defs>
  <sodipodi:namedview
     id="base"
     pagecolor="#ffffff"
     bordercolor="#666666"
     borderopacity="1.0"
     inkscape:pageopacity="0.0"
     inkscape:pageshadow="2"
     inkscape:zoom="1.979899"
     inkscape:cx="516.87536"
     inkscape:cy="732.24036"
     inkscape:document-units="px"
     inkscape:current-layer="layer1"
     showgrid="false"
     inkscape:window-width="1387"
     inkscape:window-height="856"
     inkscape:window-x="53"
     inkscape:window-y="0"
     inkscape:window-maximized="1" />
  <metadata
     id="metadata7">
    <rdf:RDF>
      <cc:Work
         rdf:about="">
        <dc:format>image/svg+xml</dc:format>
        <dc:type
           rdf:resource="http://purl.org/dc/dcmitype/StillImage" />
        <dc:title></dc:title>
      </cc:Work>
    </rdf:RDF>
  </metadata>
  <g
     inkscape:label="Layer 1"
     inkscape:groupmode="layer"
     id="layer1">
    <text
       xml:space="preserve"
       style="font-size:40px;font-style:normal;font-weight:normal;line-height:125%;letter-spacing:0px;word-spacing:0px;fill:#000000;fill-opacity:1;stroke:none;font-family:Sans"
       x="32.439709"
       y="70.493904"
       id="text2995"
       sodipodi:linespacing="125%"><tspan
         sodipodi:role="line"
         id="tspan2997"
         x="32.439709"
         y="70.493904">Patrol Boat</tspan></text>
    <text
       xml:space="preserve"
       style="font-size:40px;font-style:normal;font-weight:normal;line-height:125%;letter-spacing:0px;word-spacing:0px;fill:#000000;fill-opacity:1;stroke:none;font-family:Sans"
       x="32.439709"
       y="269.39404"
       id="text2999"
       sodipodi:linespacing="125%"><tspan
         sodipodi:role="line"
         id="tspan3001"
         x="32.439709"
         y="269.39404">Destroyer</tspan></text>
    <text
       xml:space="preserve"
       style="font-size:40px;font-style:normal;font-weight:normal;line-height:125%;letter-spacing:0px;word-spacing:0px;fill:#000000;fill-opacity:1;stroke:none;font-family:Sans"
       x="33.728771"
       y="483.80188"
       id="text3003"
       sodipodi:linespacing="125%"><tspan
         sodipodi:role="line"
         id="tspan3005"
         x="33.728771"
         y="483.80188">Submarine</tspan></text>
    <text
       xml:space="preserve"
       style="font-size:40px;font-style:normal;font-weight:normal;line-height:125%;letter-spacing:0px;word-spacing:0px;fill:#000000;fill-opacity:1;stroke:none;font-family:Sans"
       x="32.439709"
       y="682.70203"
       id="text3007"
       sodipodi:linespacing="125%"><tspan
         sodipodi:role="line"
         id="tspan3009"
         x="32.439709"
         y="682.70203">Battleship</tspan></text>
    <text
       xml:space="preserve"
       style="font-size:40px;font-style:normal;font-weight:normal;line-height:125%;letter-spacing:0px;word-spacing:0px;fill:#000000;fill-opacity:1;stroke:none;font-family:Sans"
       x="36.05299"
       y="897.10986"
       id="text3011"
       sodipodi:linespacing="125%"><tspan
         sodipodi:role="line"
         id="tspan3013"
         x="36.05299"
         y="897.10986">Aircraft Carrier</tspan></text>
    <g
       id="g3884"
       inkscape:export-filename="/Users/chris/git/ch.bfh.bti7301.w2013.battleship/Battleship/src/main/resources/AircraftCarrier.png"
       inkscape:export-xdpi="180"
       inkscape:export-ydpi="180">
      <g
         transform="translate(0,-4.1015624e-6)"
         id="g3810">
        <path
           style="fill:#808080;fill-opacity:1;stroke:none"
           d="m 36.36549,925.0033 49.497476,0 20.708124,-24 254.05337,0 29.29442,24 146.44661,0 0,68 -79.77654,0 -26.26397,8 -323.75389,0 -20.708124,-8 -49.497476,0 z"
           id="rect3034"
           inkscape:connector-curvature="0"
           sodipodi:nodetypes="ccccccccccccc" />
        <path
           style="fill:#ffffff;stroke:#ffffff;stroke-width:3.0999999;stroke-linecap:butt;stroke-linejoin:miter;stroke-miterlimit:4;stroke-opacity:1;stroke-dasharray:9.29999971, 9.29999971;stroke-dashoffset:0"
           d="m 58.588847,958.86215 454.568643,0"
           id="path3037"
           inkscape:connector-curvature="0"
           sodipodi:nodetypes="cc" />
      </g>
      <path
         sodipodi:nodetypes="ccccccccccccccccc"
         inkscape:connector-curvature="0"
         id="rect3807"
         d="m 120.19811,964.08364 -22.135803,16.33618 -8.016433,0.85981 6.391756,-17.19599 -15.022591,-0.85979 -4.191517,6.01859 -3.063198,0 1.719594,-9.45779 -1.719594,-9.45779 3.063198,0 4.191517,6.01859 15.022591,-0.85979 -6.391756,-17.19599 8.016433,0.85981 22.135803,16.33618 c 18.23052,0 18.05867,4.29899 18.05867,4.29899 0,0 -0.048,4.29899 -18.05867,4.29899 z"
         style="fill:#4d4d4d;fill-opacity:1;stroke:none" />
      <g
         transform="translate(28.571429,78.101636)"
         id="g3824">
        <path
           sodipodi:nodetypes="ccccccccccccccccc"
           inkscape:connector-curvature="0"
           id="path3814"
           d="m 109.74776,848.57139 -19.203236,4.06563 -5.45972,-1.8119 9.23385,-9.27942 -9.50092,-5.00046 -4.50096,2.6699 -1.989118,-0.90576 3.912448,-5.63469 1.67917,-6.65162 1.98912,0.90575 0.94265,5.14866 10.00924,3.88353 0.93273,-13.05935 4.951386,2.92885 9.54499,17.15619 c 11.83818,5.39056 10.45577,8.13209 10.45577,8.13209 0,0 -1.30199,2.77814 -12.9974,-2.5474 z"
           style="fill:#4d4d4d;fill-opacity:1;stroke:none" />
        <path
           style="fill:#4d4d4d;fill-opacity:1;stroke:none"
           d="m 161.08109,848.57139 -19.20324,4.06563 -5.45972,-1.8119 9.23385,-9.27942 -9.50092,-5.00046 -4.50096,2.6699 -1.98912,-0.90576 3.91245,-5.63469 1.67917,-6.65162 1.98912,0.90575 0.94265,5.14866 10.00924,3.88353 0.93273,-13.05935 4.95139,2.92885 9.54499,17.15619 c 11.83818,5.39056 10.45577,8.13209 10.45577,8.13209 0,0 -1.30199,2.77814 -12.9974,-2.5474 z"
           id="path3816"
           inkscape:connector-curvature="0"
           sodipodi:nodetypes="ccccccccccccccccc" />
        <path
           sodipodi:nodetypes="ccccccccccccccccc"
           inkscape:connector-curvature="0"
           id="path3818"
           d="m 212.41442,848.57139 -19.20324,4.06563 -5.45972,-1.8119 9.23385,-9.27942 -9.50092,-5.00046 -4.50096,2.6699 -1.98912,-0.90576 3.91245,-5.63469 1.67917,-6.65162 1.98912,0.90575 0.94265,5.14866 10.00924,3.88353 0.93273,-13.05935 4.95139,2.92885 9.54499,17.15619 c 11.83818,5.39056 10.45577,8.13209 10.45577,8.13209 0,0 -1.30199,2.77814 -12.9974,-2.5474 z"
           style="fill:#4d4d4d;fill-opacity:1;stroke:none" />
        <path
           sodipodi:nodetypes="ccccccccccccccccc"
           inkscape:connector-curvature="0"
           id="path3822"
           d="m 263.74776,848.57139 -19.20324,4.06563 -5.45972,-1.8119 9.23385,-9.27942 -9.50092,-5.00046 -4.50096,2.6699 -1.98912,-0.90576 3.91245,-5.63469 1.67917,-6.65162 1.98912,0.90575 0.94265,5.14866 10.00924,3.88353 0.93273,-13.05935 4.95139,2.92885 9.54499,17.15619 c 11.83818,5.39056 10.45577,8.13209 10.45577,8.13209 0,0 -1.30199,2.77814 -12.9974,-2.5474 z"
           style="fill:#4d4d4d;fill-opacity:1;stroke:none" />
      </g>
      <rect
         y="901.0033"
         x="313.22479"
         height="27.438707"
         width="46.7752"
         id="rect3830"
         style="fill:#666666;fill-opacity:1;stroke:none" />
    </g>
    <g
       id="g3898"
       inkscape:export-filename="/Users/chris/git/ch.bfh.bti7301.w2013.battleship/Battleship/src/main/resources/Submarine.png"
       inkscape:export-xdpi="180"
       inkscape:export-ydpi="180">
      <g
         id="g3869">
        <rect
           ry="50"
           y="487.69531"
           x="36.36549"
           height="100"
           width="300"
           id="rect3860"
           style="fill:#808080;fill-opacity:1;stroke:none;opacity:0.67880019000000003" />
        <path
           style="fill:#666666;fill-opacity:1;stroke:none"
           d="m 86.641285,509.7924 199.448415,0 c 16.59034,0 29.94647,10.81192 29.94647,24.24196 l 0,7.32189 c 0,13.43005 -13.35613,24.24197 -29.94647,24.24197 l -199.448415,0 c -16.590349,0 -29.946478,-10.81192 -29.946478,-24.24197 l 0,-7.32189 c 0,-13.43004 13.356129,-24.24196 29.946478,-24.24196 z"
           id="rect3862"
           inkscape:connector-curvature="0" />
        <rect
           style="fill:#4d4d4d;fill-opacity:1;stroke:none"
           id="rect3867"
           width="107.06087"
           height="35.686954"
           x="106.06602"
           y="519.85181"
           ry="17.843477" />
      </g>
      <path
         transform="translate(-10.101525,-4.539856)"
         d="m 274.76149,542.23517 a 14.142136,14.142136 0 1 1 -28.28427,0 14.142136,14.142136 0 1 1 28.28427,0 z"
         sodipodi:ry="14.142136"
         sodipodi:rx="14.142136"
         sodipodi:cy="542.23517"
         sodipodi:cx="260.61935"
         id="path3896"
         style="fill:none;stroke:#4d4d4d"
         sodipodi:type="arc" />
    </g>
    <g
       id="g3930"
       inkscape:export-filename="/Users/chris/git/ch.bfh.bti7301.w2013.battleship/Battleship/src/main/resources/PatrolBoat.png"
       inkscape:export-xdpi="180"
       inkscape:export-ydpi="180">
      <path
         sodipodi:nodetypes="sccscs"
         inkscape:connector-curvature="0"
         id="rect3905"
         d="m 161.95817,174.3873 c -44.5309,0 -125.59268,0 -125.59268,0 l 0,-100.000001 c 0,0 81.06178,0 125.59268,0 36.78298,0 74.40732,50.000001 74.40732,50.000001 0,0 -37.11926,50 -74.40732,50 z"
         style="fill:#999999;fill-opacity:1;stroke:none" />
      <path
         sodipodi:nodetypes="ccccc"
         inkscape:connector-curvature="0"
         id="rect3908"
         d="m 100.51019,88.779415 58.08377,0 c 10.5098,24.395445 11.03747,48.167015 0,71.215765 l -58.08377,0 c 3.73839,-23.73859 5.60888,-47.47718 0,-71.215765 z"
         style="fill:#666666;fill-opacity:1;stroke:none" />
      <g
         inkscape:transform-center-y="-23.284606"
         inkscape:transform-center-x="-19.024446"
         transform="matrix(0.63249761,-0.77456231,0.77456231,0.63249761,-27.617794,192.81553)"
         id="g3924">
        <path
           style="fill:url(#linearGradient3928);fill-opacity:1;stroke:none"
           d="m 193.44421,121.50662 50.50763,-10 0,30.10152 -50.50763,-10 z"
           id="rect3913"
           inkscape:connector-curvature="0"
           sodipodi:nodetypes="ccccc" />
        <rect
           style="fill:#666666;fill-opacity:1;stroke:none"
           id="rect3911"
           width="6.0609155"
           height="14.142136"
           x="188.39345"
           y="119.48631" />
      </g>
    </g>
    <g
       id="g4025"
       inkscape:export-filename="/Users/chris/git/ch.bfh.bti7301.w2013.battleship/Battleship/src/main/resources/Destroyer.png"
       inkscape:export-xdpi="180"
       inkscape:export-ydpi="180">
      <path
         inkscape:export-ydpi="180"
         inkscape:export-xdpi="180"
         inkscape:export-filename="/Users/chris/git/ch.bfh.bti7301.w2013.battleship/Battleship/src/main/resources/Destroyer.png"
         sodipodi:nodetypes="ssccsszs"
         inkscape:connector-curvature="0"
         id="rect3937"
         d="m 238.08255,381.04132 c -49.858,0 -109.81928,0 -148.52416,0 -11.940317,0 -53.1929,-2 -53.1929,-2 l 0,-96 c 0,0 41.252583,-2 53.1929,-2 38.70488,0 98.66616,0 148.52416,0 34.76098,0 98.28294,35.69365 98.28294,50 0,14.30635 -63.52196,50 -98.28294,50 z"
         style="fill:#808080;fill-opacity:1;stroke:none" />
      <path
         style="fill:#666666;fill-opacity:1;stroke:none"
         d="m 72.12438,296.4436 127.52287,0 4,13.83909 c 0,13.83909 0,27.67818 0,41.51727 l -4,13.83909 -127.52287,0 z"
         id="path3960"
         inkscape:connector-curvature="0"
         sodipodi:nodetypes="ccccccc" />
      <g
         inkscape:transform-center-y="-10.213819"
         inkscape:transform-center-x="-13.124646"
         transform="matrix(0.78220644,-0.62301933,0.62301933,0.78220644,-149.45495,234.43622)"
         id="g4020">
        <path
           transform="matrix(0.53899586,0.25342525,-0.25342525,0.53899586,268.21871,-158.64064)"
           d="m 361.12955,749.0639 c 0,12.4131 -10.0628,22.4759 -22.47589,22.4759 -12.4131,0 -22.4759,-10.0628 -22.4759,-22.4759 0,-12.41309 10.0628,-22.47589 22.4759,-22.47589 12.41309,0 22.47589,10.0628 22.47589,22.47589 z"
           sodipodi:ry="22.475895"
           sodipodi:rx="22.475895"
           sodipodi:cy="749.0639"
           sodipodi:cx="338.65366"
           id="path3950"
           style="fill:#4d4d4d;fill-opacity:1;stroke:none"
           sodipodi:type="arc" />
        <rect
           style="fill:#4d4d4d;fill-opacity:1;stroke:none"
           id="rect4016"
           width="36.36549"
           height="5.0507627"
           x="269.26913"
           y="324.10312" />
        <rect
           y="332.10312"
           x="269.26913"
           height="5.0507627"
           width="36.36549"
           id="rect4018"
           style="fill:#4d4d4d;fill-opacity:1;stroke:none" />
      </g>
    </g>
    <g
       id="g4061"
       inkscape:export-filename="/Users/chris/git/ch.bfh.bti7301.w2013.battleship/Battleship/src/main/resources/Battleship.png"
       inkscape:export-xdpi="180"
       inkscape:export-ydpi="180">
      <path
         sodipodi:nodetypes="ssccsszs"
         inkscape:connector-curvature="0"
         id="rect3832"
         d="m 315.08637,794.3493 c -76.01398,0 -157.36129,0 -236.041933,0 -14.226316,0 -42.678947,-6 -42.678947,-6 l 0,-88 c 0,0 28.452631,-6 42.678947,-6 78.680643,0 160.027953,0 236.041933,0 43.09304,0 121.27912,35.11097 121.27912,50 0,14.88903 -78.18608,50 -121.27912,50 z"
         style="fill:#999999;fill-opacity:1;stroke:none" />
      <path
         style="fill:#808080;fill-opacity:1;stroke:none"
         d="m 119.29946,706.05782 183.69999,0 12.42706,15.31659 c 0,15.3166 0,30.63321 0,45.94981 l -12.42706,15.31659 -183.69999,0 z"
         id="path4059"
         inkscape:connector-curvature="0"
         sodipodi:nodetypes="ccccccc" />
      <path
         sodipodi:nodetypes="ccccccc"
         inkscape:connector-curvature="0"
         id="rect3835"
         d="m 124.81475,719.1898 110.18766,0 2.90881,10.0638 c 0,10.06381 0,20.12762 0,30.19143 l -2.90881,10.0638 -110.18766,0 z"
         style="fill:#666666;fill-opacity:1;stroke:none" />
      <g
         inkscape:transform-center-y="-11.429598"
         transform="matrix(0.64184681,-0.76683289,0.76683289,0.64184681,-417.30044,518.14834)"
         inkscape:transform-center-x="-8.5064658"
         id="g3852">
        <path
           sodipodi:type="arc"
           style="fill:#666666;fill-opacity:1;stroke:none"
           id="path3839"
           sodipodi:cx="338.65366"
           sodipodi:cy="749.0639"
           sodipodi:rx="22.475895"
           sodipodi:ry="22.475895"
           d="m 361.12955,749.0639 c 0,12.4131 -10.0628,22.4759 -22.47589,22.4759 -12.4131,0 -22.4759,-10.0628 -22.4759,-22.4759 0,-12.41309 10.0628,-22.47589 22.4759,-22.47589 12.41309,0 22.47589,10.0628 22.47589,22.47589 z"
           transform="translate(-11.111678,-4.714592)" />
        <g
           id="g3847">
          <rect
             y="733.15399"
             x="342.94678"
             height="5.0507627"
             width="35.355339"
             id="rect3841"
             style="fill:#666666;fill-opacity:1;stroke:none" />
          <rect
             style="fill:#666666;fill-opacity:1;stroke:none"
             id="rect3843"
             width="35.355339"
             height="5.0507627"
             x="342.94678"
             y="741.15399" />
          <rect
             y="749.15399"
             x="342.94678"
             height="5.0507627"
             width="35.355339"
             id="rect3845"
             style="fill:#666666;fill-opacity:1;stroke:none" />
        </g>
      </g>
      <g
         id="g3962"
         inkscape:transform-center-x="-6.0079037"
         transform="matrix(0.49826934,0.8670223,-0.8670223,0.49826934,759.95871,89.03877)"
         inkscape:transform-center-y="12.782671">
        <path
           transform="translate(-11.111678,-4.714592)"
           d="m 361.12955,749.0639 c 0,12.4131 -10.0628,22.4759 -22.47589,22.4759 -12.4131,0 -22.4759,-10.0628 -22.4759,-22.4759 0,-12.41309 10.0628,-22.47589 22.4759,-22.47589 12.41309,0 22.47589,10.0628 22.47589,22.47589 z"
           sodipodi:ry="22.475895"
           sodipodi:rx="22.475895"
           sodipodi:cy="749.0639"
           sodipodi:cx="338.65366"
           id="path3964"
           style="fill:#666666;fill-opacity:1;stroke:none"
           sodipodi:type="arc" />
        <g
           id="g3966">
          <rect
             style="fill:#666666;fill-opacity:1;stroke:none"
             id="rect3968"
             width="35.355339"
             height="5.0507627"
             x="342.94678"
             y="733.15399" />
          <rect
             y="741.15399"
             x="342.94678"
             height="5.0507627"
             width="35.355339"
             id="rect3970"
             style="fill:#666666;fill-opacity:1;stroke:none" />
          <rect
             style="fill:#666666;fill-opacity:1;stroke:none"
             id="rect3972"
             width="35.355339"
             height="5.0507627"
             x="342.94678"
             y="749.15399" />
        </g>
      </g>
      <g
         inkscape:transform-center-y="12.267409"
         transform="matrix(0.54810252,0.83641117,-0.83641117,0.54810252,520.82571,61.987372)"
         inkscape:transform-center-x="-7.0767752"
         id="g4047">
        <path
           sodipodi:type="arc"
           style="fill:#666666;fill-opacity:1;stroke:none"
           id="path4049"
           sodipodi:cx="338.65366"
           sodipodi:cy="749.0639"
           sodipodi:rx="22.475895"
           sodipodi:ry="22.475895"
           d="m 361.12955,749.0639 c 0,12.4131 -10.0628,22.4759 -22.47589,22.4759 -12.4131,0 -22.4759,-10.0628 -22.4759,-22.4759 0,-12.41309 10.0628,-22.47589 22.4759,-22.47589 12.41309,0 22.47589,10.0628 22.47589,22.47589 z"
           transform="translate(-11.111678,-4.714592)" />
        <g
           id="g4051">
          <rect
             y="733.15399"
             x="342.94678"
             height="5.0507627"
             width="35.355339"
             id="rect4053"
             style="fill:#666666;fill-opacity:1;stroke:none" />
          <rect
             style="fill:#666666;fill-opacity:1;stroke:none"
             id="rect4055"
             width="35.355339"
             height="5.0507627"
             x="342.94678"
             y="741.15399" />
          <rect
             y="749.15399"
             x="342.94678"
             height="5.0507627"
             width="35.355339"
             id="rect4057"
             style="fill:#666666;fill-opacity:1;stroke:none" />
        </g>
      </g>
    </g>
    <g
       id="g3866"
       transform="matrix(1.1656352,0,0,1.077523,-89.368849,-12.813154)"
       inkscape:export-filename="/Users/chris/git/ch.bfh.bti7301.w2013.battleship/Battleship/src/main/resources/Fire.png"
       inkscape:export-xdpi="181.46898"
       inkscape:export-ydpi="181.46898">
      <path
         sodipodi:nodetypes="cccccsc"
         inkscape:connector-curvature="0"
         id="path3058"
         d="m 541.44177,179.59038 c 15.21087,7.45612 29.85169,-11.13963 50.00255,0.50508 2.60358,-17.30529 -3.08646,-30.20612 3.03046,-35.86042 1.26796,-6.14642 -2.65447,-26.978 7.25954,-30.37057 -21.57146,-6.83251 -41.00841,7.3578 -60.79763,-10.03553 -11.48686,-1.01143 -22.61338,42.28554 -12.06974,52.02592 10.8214,9.99697 12.14223,21.83948 12.57482,23.73552 z"
         style="opacity:0.75;fill:url(#radialGradient3873);fill-opacity:1;stroke:none;filter:url(#filter3846)" />
      <path
         transform="matrix(-0.10905593,0.86387206,-0.86387206,-0.10905593,747.70933,-330.37962)"
         style="opacity:0.75;fill:url(#radialGradient3875);fill-opacity:1;stroke:none;filter:url(#filter3846)"
         d="m 548.493,179.86956 c 15.21087,7.45612 34.74625,-9.41886 54.89711,2.22585 2.60358,-17.30529 -8.47815,-26.60214 -2.36123,-32.25644 1.26796,-6.14642 1.30705,-23.38545 11.22106,-26.77802 -21.57146,-6.83251 -37.64523,-7.68341 -57.43445,-25.07674 -11.48686,-1.01143 -46.1417,41.16312 -35.59806,50.9035 10.8214,9.99697 28.84298,29.08581 29.27557,30.98185 z"
         id="path3850"
         inkscape:connector-curvature="0"
         sodipodi:nodetypes="cccccsc" />
      <path
         sodipodi:nodetypes="cccccsc"
         inkscape:connector-curvature="0"
         id="path3854"
         d="m 548.493,179.86956 c 15.21087,7.45612 34.74625,-9.41886 54.89711,2.22585 2.60358,-17.30529 -8.47815,-26.60214 -2.36123,-32.25644 1.26796,-6.14642 1.30705,-23.38545 11.22106,-26.77802 -21.57146,-6.83251 -37.64523,-7.68341 -57.43445,-25.07674 -11.48686,-1.01143 -46.1417,41.16312 -35.59806,50.9035 10.8214,9.99697 28.84298,29.08581 29.27557,30.98185 z"
         style="opacity:0.75;fill:url(#radialGradient3877);fill-opacity:1;stroke:none;filter:url(#filter3846)"
         transform="matrix(0.31672096,0.36954609,-0.36954609,0.31672096,450.81492,-102.94746)" />
      <path
         transform="matrix(0.31672096,0.36954609,-0.36954609,0.31672096,437.68294,-114.05914)"
         style="opacity:0.75;fill:url(#radialGradient3879);fill-opacity:1;stroke:none;filter:url(#filter3846)"
         d="m 548.493,179.86956 c 15.21087,7.45612 34.74625,-9.41886 54.89711,2.22585 2.60358,-17.30529 -8.47815,-26.60214 -2.36123,-32.25644 1.26796,-6.14642 1.30705,-23.38545 11.22106,-26.77802 -21.57146,-6.83251 -37.64523,-7.68341 -57.43445,-25.07674 -11.48686,-1.01143 -46.1417,41.16312 -35.59806,50.9035 10.8214,9.99697 28.84298,29.08581 29.27557,30.98185 z"
         id="path3858"
         inkscape:connector-curvature="0"
         sodipodi:nodetypes="cccccsc" />
      <path
         sodipodi:nodetypes="cccccsc"
         inkscape:connector-curvature="0"
         id="path3862"
         d="m 548.493,179.86956 c 15.21087,7.45612 34.74625,-9.41886 54.89711,2.22585 2.60358,-17.30529 -8.47815,-26.60214 -2.36123,-32.25644 1.26796,-6.14642 1.30705,-23.38545 11.22106,-26.77802 -21.57146,-6.83251 -37.64523,-7.68341 -57.43445,-25.07674 -11.48686,-1.01143 -46.1417,41.16312 -35.59806,50.9035 10.8214,9.99697 28.84298,29.08581 29.27557,30.98185 z"
         style="opacity:0.75;fill:url(#radialGradient3881);fill-opacity:1;stroke:none;filter:url(#filter3846)"
         transform="matrix(-0.00324514,0.41495593,-0.40838486,0.03134045,613.82566,-94.370861)" />
    </g>
    <g
       id="g5115"
       transform="matrix(0.87634667,0,0,0.87732873,57.459996,40.422411)"
       inkscape:export-filename="/Users/chris/git/ch.bfh.bti7301.w2013.battleship/Battleship/src/main/resources/Splash.png"
       inkscape:export-xdpi="179.76608"
       inkscape:export-ydpi="179.76608">
      <path
         transform="matrix(1.0878566,0,0,1.0878566,-61.225795,-42.621834)"
         d="m 581.84787,289.69702 c 0,25.38408 -20.57787,45.96194 -45.96194,45.96194 -25.38408,0 -45.96195,-20.57786 -45.96195,-45.96194 0,-25.38408 20.57787,-45.96194 45.96195,-45.96194 25.38407,0 45.96194,20.57786 45.96194,45.96194 z"
         sodipodi:ry="45.961941"
         sodipodi:rx="45.961941"
         sodipodi:cy="289.69702"
         sodipodi:cx="535.88593"
         id="path4999"
         style="fill:none;stroke:#87cdde;stroke-width:1.83847761;stroke-miterlimit:4;stroke-dasharray:none;filter:url(#filter5009)"
         sodipodi:type="arc" />
      <path
         sodipodi:type="arc"
         style="fill:none;stroke:#87cdde;stroke-width:2.44435596;stroke-miterlimit:4;stroke-dasharray:none;filter:url(#filter5077)"
         id="path5013"
         sodipodi:cx="535.88593"
         sodipodi:cy="289.69702"
         sodipodi:rx="45.961941"
         sodipodi:ry="45.961941"
         d="m 581.84787,289.69702 c 0,25.38408 -20.57787,45.96194 -45.96194,45.96194 -25.38408,0 -45.96195,-20.57786 -45.96195,-45.96194 0,-25.38408 20.57787,-45.96194 45.96195,-45.96194 25.38407,0 45.96194,20.57786 45.96194,45.96194 z"
         transform="matrix(0.81821147,0,0,0.81821147,83.273237,35.493558)" />
      <path
         transform="matrix(0.55968976,0,0,0.55968976,221.81138,110.38653)"
         d="m 581.84787,289.69702 c 0,25.38408 -20.57787,45.96194 -45.96194,45.96194 -25.38408,0 -45.96195,-20.57786 -45.96195,-45.96194 0,-25.38408 20.57787,-45.96194 45.96195,-45.96194 25.38407,0 45.96194,20.57786 45.96194,45.96194 z"
         sodipodi:ry="45.961941"
         sodipodi:rx="45.961941"
         sodipodi:cy="289.69702"
         sodipodi:cx="535.88593"
         id="path5015"
         style="fill:none;stroke:#87cdde;stroke-width:3.57340813;stroke-miterlimit:4;stroke-dasharray:none;filter:url(#filter5085)"
         sodipodi:type="arc" />
      <path
         sodipodi:type="arc"
         style="fill:#d7eef4;stroke:#87cdde;stroke-width:6.45763397;stroke-miterlimit:4;stroke-dasharray:none;filter:url(#filter5111)"
         id="path5089"
         sodipodi:cx="535.88593"
         sodipodi:cy="289.69702"
         sodipodi:rx="45.961941"
         sodipodi:ry="45.961941"
         d="m 581.84787,289.69702 c 0,25.38408 -20.57787,45.96194 -45.96194,45.96194 -25.38408,0 -45.96195,-20.57786 -45.96195,-45.96194 0,-25.38408 20.57787,-45.96194 45.96195,-45.96194 25.38407,0 45.96194,20.57786 45.96194,45.96194 z"
         transform="matrix(0.30971095,0,0,0.30971095,355.77151,182.80465)" />
    </g>
    <path
       style="opacity:0.2;fill:#000000;fill-opacity:1;stroke:none;filter:url(#filter3883)"
       d="m 620.73025,383.41953 c -1.19831,-1.19831 -6.44876,1.92372 -13.74439,7.77817 -9.95135,-7.34709 -23.62036,-7.3373 -33.56547,0.0221 -7.3084,-5.8672 -12.54475,-8.97782 -13.74439,-7.77818 -1.19965,1.19965 1.91098,6.43599 7.77817,13.74439 -7.3583,9.94508 -7.369,23.61463 -0.0221,33.56548 -5.85446,7.29562 -8.97648,12.54608 -7.77818,13.74439 1.19831,1.1983 6.47086,-1.90163 13.76649,-7.75608 9.95085,7.3469 23.62039,7.3362 33.56547,-0.0221 7.29751,5.85632 12.54589,8.97668 13.74439,7.77818 1.1985,-1.1985 -1.92184,-6.44689 -7.77817,-13.74439 7.35939,-9.94512 7.36919,-23.61412 0.0221,-33.56548 5.85446,-7.29562 8.95439,-12.56818 7.75608,-13.76648 z"
       id="path3085"
       inkscape:connector-curvature="0"
       transform="matrix(1.3269063,0,0,1.3269065,-180.61935,-147.64403)"
       inkscape:export-filename="/Users/chris/git/ch.bfh.bti7301.w2013.battleship/Battleship/src/main/resources/Incoming.png"
       inkscape:export-xdpi="180"
       inkscape:export-ydpi="180" />
  </g>
</svg>
