<?xml version="1.0" encoding="UTF-8" standalone="no"?>
<!-- Created with Inkscape (http://www.inkscape.org/) -->

<svg
   xmlns:dc="http://purl.org/dc/elements/1.1/"
   xmlns:cc="http://creativecommons.org/ns#"
   xmlns:rdf="http://www.w3.org/1999/02/22-rdf-syntax-ns#"
   xmlns:svg="http://www.w3.org/2000/svg"
   xmlns="http://www.w3.org/2000/svg"
   xmlns:sodipodi="http://sodipodi.sourceforge.net/DTD/sodipodi-0.dtd"
   xmlns:inkscape="http://www.inkscape.org/namespaces/inkscape"
   width="744.09448819"
   height="1052.3622047"
   id="svg2"
   version="1.1"
   inkscape:version="0.48.2 r9819"
   sodipodi:docname="ships.svg">
  <defs
     id="defs4" />
  <sodipodi:namedview
     id="base"
     pagecolor="#ffffff"
     bordercolor="#666666"
     borderopacity="1.0"
     inkscape:pageopacity="0.0"
     inkscape:pageshadow="2"
     inkscape:zoom="1.979899"
     inkscape:cx="233.26923"
     inkscape:cy="731.58195"
     inkscape:document-units="px"
     inkscape:current-layer="layer1"
     showgrid="false"
     inkscape:window-width="1387"
     inkscape:window-height="856"
     inkscape:window-x="53"
     inkscape:window-y="0"
     inkscape:window-maximized="1" />
  <metadata
     id="metadata7">
    <rdf:RDF>
      <cc:Work
         rdf:about="">
        <dc:format>image/svg+xml</dc:format>
        <dc:type
           rdf:resource="http://purl.org/dc/dcmitype/StillImage" />
        <dc:title></dc:title>
      </cc:Work>
    </rdf:RDF>
  </metadata>
  <g
     inkscape:label="Layer 1"
     inkscape:groupmode="layer"
     id="layer1">
    <rect
       style="opacity:0.42241378;fill:#0000ff;fill-opacity:1;stroke:none"
       id="rect2985"
       width="200"
       height="100"
       x="36.36549"
       y="74.387299"
       ry="0" />
    <rect
       ry="0"
       y="281.04132"
       x="36.36549"
       height="100"
       width="300"
       id="rect2987"
       style="opacity:0.42241378;fill:#0000ff;fill-opacity:1;stroke:none" />
    <text
       xml:space="preserve"
       style="font-size:40px;font-style:normal;font-weight:normal;line-height:125%;letter-spacing:0px;word-spacing:0px;fill:#000000;fill-opacity:1;stroke:none;font-family:Sans"
       x="32.439709"
       y="70.493904"
       id="text2995"
       sodipodi:linespacing="125%"><tspan
         sodipodi:role="line"
         id="tspan2997"
         x="32.439709"
         y="70.493904">Patrol Boat</tspan></text>
    <text
       xml:space="preserve"
       style="font-size:40px;font-style:normal;font-weight:normal;line-height:125%;letter-spacing:0px;word-spacing:0px;fill:#000000;fill-opacity:1;stroke:none;font-family:Sans"
       x="32.439709"
       y="269.39404"
       id="text2999"
       sodipodi:linespacing="125%"><tspan
         sodipodi:role="line"
         id="tspan3001"
         x="32.439709"
         y="269.39404">Destroyer</tspan></text>
    <text
       xml:space="preserve"
       style="font-size:40px;font-style:normal;font-weight:normal;line-height:125%;letter-spacing:0px;word-spacing:0px;fill:#000000;fill-opacity:1;stroke:none;font-family:Sans"
       x="33.728771"
       y="483.80188"
       id="text3003"
       sodipodi:linespacing="125%"><tspan
         sodipodi:role="line"
         id="tspan3005"
         x="33.728771"
         y="483.80188">Submarine</tspan></text>
    <text
       xml:space="preserve"
       style="font-size:40px;font-style:normal;font-weight:normal;line-height:125%;letter-spacing:0px;word-spacing:0px;fill:#000000;fill-opacity:1;stroke:none;font-family:Sans"
       x="32.439709"
       y="682.70203"
       id="text3007"
       sodipodi:linespacing="125%"><tspan
         sodipodi:role="line"
         id="tspan3009"
         x="32.439709"
         y="682.70203">Battleship</tspan></text>
    <text
       xml:space="preserve"
       style="font-size:40px;font-style:normal;font-weight:normal;line-height:125%;letter-spacing:0px;word-spacing:0px;fill:#000000;fill-opacity:1;stroke:none;font-family:Sans"
       x="36.05299"
       y="897.10986"
       id="text3011"
       sodipodi:linespacing="125%"><tspan
         sodipodi:role="line"
         id="tspan3013"
         x="36.05299"
         y="897.10986">Aircraft Carrier</tspan></text>
    <g
       id="g3884">
      <g
         transform="translate(0,-4.1015624e-6)"
         id="g3810">
        <path
           style="fill:#808080;fill-opacity:1;stroke:none"
           d="m 36.36549,925.0033 49.497476,0 20.708124,-24 254.05337,0 29.29442,24 146.44661,0 0,68 -79.77654,0 -26.26397,8 -323.75389,0 -20.708124,-8 -49.497476,0 z"
           id="rect3034"
           inkscape:connector-curvature="0"
           sodipodi:nodetypes="ccccccccccccc" />
        <path
           style="fill:#ffffff;stroke:#ffffff;stroke-width:3.0999999;stroke-linecap:butt;stroke-linejoin:miter;stroke-miterlimit:4;stroke-opacity:1;stroke-dasharray:9.29999971, 9.29999971;stroke-dashoffset:0"
           d="m 58.588847,958.86215 454.568643,0"
           id="path3037"
           inkscape:connector-curvature="0"
           sodipodi:nodetypes="cc" />
      </g>
      <path
         sodipodi:nodetypes="ccccccccccccccccc"
         inkscape:connector-curvature="0"
         id="rect3807"
         d="m 120.19811,964.08364 -22.135803,16.33618 -8.016433,0.85981 6.391756,-17.19599 -15.022591,-0.85979 -4.191517,6.01859 -3.063198,0 1.719594,-9.45779 -1.719594,-9.45779 3.063198,0 4.191517,6.01859 15.022591,-0.85979 -6.391756,-17.19599 8.016433,0.85981 22.135803,16.33618 c 18.23052,0 18.05867,4.29899 18.05867,4.29899 0,0 -0.048,4.29899 -18.05867,4.29899 z"
         style="fill:#4d4d4d;fill-opacity:1;stroke:none" />
      <g
         transform="translate(28.571429,78.101636)"
         id="g3824">
        <path
           sodipodi:nodetypes="ccccccccccccccccc"
           inkscape:connector-curvature="0"
           id="path3814"
           d="m 109.74776,848.57139 -19.203236,4.06563 -5.45972,-1.8119 9.23385,-9.27942 -9.50092,-5.00046 -4.50096,2.6699 -1.989118,-0.90576 3.912448,-5.63469 1.67917,-6.65162 1.98912,0.90575 0.94265,5.14866 10.00924,3.88353 0.93273,-13.05935 4.951386,2.92885 9.54499,17.15619 c 11.83818,5.39056 10.45577,8.13209 10.45577,8.13209 0,0 -1.30199,2.77814 -12.9974,-2.5474 z"
           style="fill:#4d4d4d;fill-opacity:1;stroke:none" />
        <path
           style="fill:#4d4d4d;fill-opacity:1;stroke:none"
           d="m 161.08109,848.57139 -19.20324,4.06563 -5.45972,-1.8119 9.23385,-9.27942 -9.50092,-5.00046 -4.50096,2.6699 -1.98912,-0.90576 3.91245,-5.63469 1.67917,-6.65162 1.98912,0.90575 0.94265,5.14866 10.00924,3.88353 0.93273,-13.05935 4.95139,2.92885 9.54499,17.15619 c 11.83818,5.39056 10.45577,8.13209 10.45577,8.13209 0,0 -1.30199,2.77814 -12.9974,-2.5474 z"
           id="path3816"
           inkscape:connector-curvature="0"
           sodipodi:nodetypes="ccccccccccccccccc" />
        <path
           sodipodi:nodetypes="ccccccccccccccccc"
           inkscape:connector-curvature="0"
           id="path3818"
           d="m 212.41442,848.57139 -19.20324,4.06563 -5.45972,-1.8119 9.23385,-9.27942 -9.50092,-5.00046 -4.50096,2.6699 -1.98912,-0.90576 3.91245,-5.63469 1.67917,-6.65162 1.98912,0.90575 0.94265,5.14866 10.00924,3.88353 0.93273,-13.05935 4.95139,2.92885 9.54499,17.15619 c 11.83818,5.39056 10.45577,8.13209 10.45577,8.13209 0,0 -1.30199,2.77814 -12.9974,-2.5474 z"
           style="fill:#4d4d4d;fill-opacity:1;stroke:none" />
        <path
           sodipodi:nodetypes="ccccccccccccccccc"
           inkscape:connector-curvature="0"
           id="path3822"
           d="m 263.74776,848.57139 -19.20324,4.06563 -5.45972,-1.8119 9.23385,-9.27942 -9.50092,-5.00046 -4.50096,2.6699 -1.98912,-0.90576 3.91245,-5.63469 1.67917,-6.65162 1.98912,0.90575 0.94265,5.14866 10.00924,3.88353 0.93273,-13.05935 4.95139,2.92885 9.54499,17.15619 c 11.83818,5.39056 10.45577,8.13209 10.45577,8.13209 0,0 -1.30199,2.77814 -12.9974,-2.5474 z"
           style="fill:#4d4d4d;fill-opacity:1;stroke:none" />
      </g>
      <rect
         y="901.0033"
         x="313.22479"
         height="27.438707"
         width="46.7752"
         id="rect3830"
         style="fill:#666666;fill-opacity:1;stroke:none" />
    </g>
    <g
       id="g3874">
      <path
         sodipodi:nodetypes="ssccsszs"
         inkscape:connector-curvature="0"
         id="rect3832"
         d="m 315.08637,794.3493 c -76.01398,0 -157.36129,0 -236.041933,0 -14.226316,0 -42.678947,-6 -42.678947,-6 l 0,-88 c 0,0 28.452631,-6 42.678947,-6 78.680643,0 160.027953,0 236.041933,0 43.09304,0 121.27912,35.11097 121.27912,50 0,14.88903 -78.18608,50 -121.27912,50 z"
         style="fill:#999999;fill-opacity:1;stroke:none" />
      <path
         sodipodi:nodetypes="ccccccc"
         inkscape:connector-curvature="0"
         id="rect3835"
         d="m 109.60155,709.75159 151.52287,0 4,13.83909 c 0,13.83909 0,27.67818 0,41.51727 l -4,13.83909 -151.52287,0 z"
         style="fill:#666666;fill-opacity:1;stroke:none" />
      <g
         inkscape:transform-center-y="-11.429598"
         transform="matrix(0.64184681,-0.76683289,0.76683289,0.64184681,-453.30044,518.14834)"
         inkscape:transform-center-x="-8.5064658"
         id="g3852">
        <path
           sodipodi:type="arc"
           style="fill:#666666;fill-opacity:1;stroke:none"
           id="path3839"
           sodipodi:cx="338.65366"
           sodipodi:cy="749.0639"
           sodipodi:rx="22.475895"
           sodipodi:ry="22.475895"
           d="m 361.12955,749.0639 c 0,12.4131 -10.0628,22.4759 -22.47589,22.4759 -12.4131,0 -22.4759,-10.0628 -22.4759,-22.4759 0,-12.41309 10.0628,-22.47589 22.4759,-22.47589 12.41309,0 22.47589,10.0628 22.47589,22.47589 z"
           transform="translate(-11.111678,-4.714592)" />
        <g
           id="g3847">
          <rect
             y="733.15399"
             x="342.94678"
             height="5.0507627"
             width="35.355339"
             id="rect3841"
             style="fill:#666666;fill-opacity:1;stroke:none" />
          <rect
             style="fill:#666666;fill-opacity:1;stroke:none"
             id="rect3843"
             width="35.355339"
             height="5.0507627"
             x="342.94678"
             y="741.15399" />
          <rect
             y="749.15399"
             x="342.94678"
             height="5.0507627"
             width="35.355339"
             id="rect3845"
             style="fill:#666666;fill-opacity:1;stroke:none" />
        </g>
      </g>
    </g>
    <g
       id="g3898">
      <g
         id="g3869">
        <rect
           ry="50"
           y="487.69531"
           x="36.36549"
           height="100"
           width="300"
           id="rect3860"
           style="fill:#808080;fill-opacity:1;stroke:none;opacity:0.67880019000000003" />
        <path
           style="fill:#666666;fill-opacity:1;stroke:none"
           d="m 86.641285,509.7924 199.448415,0 c 16.59034,0 29.94647,10.81192 29.94647,24.24196 l 0,7.32189 c 0,13.43005 -13.35613,24.24197 -29.94647,24.24197 l -199.448415,0 c -16.590349,0 -29.946478,-10.81192 -29.946478,-24.24197 l 0,-7.32189 c 0,-13.43004 13.356129,-24.24196 29.946478,-24.24196 z"
           id="rect3862"
           inkscape:connector-curvature="0" />
        <rect
           style="fill:#4d4d4d;fill-opacity:1;stroke:none"
           id="rect3867"
           width="107.06087"
           height="35.686954"
           x="106.06602"
           y="519.85181"
           ry="17.843477" />
      </g>
      <path
         transform="translate(-10.101525,-4.539856)"
         d="m 274.76149,542.23517 a 14.142136,14.142136 0 1 1 -28.28427,0 14.142136,14.142136 0 1 1 28.28427,0 z"
         sodipodi:ry="14.142136"
         sodipodi:rx="14.142136"
         sodipodi:cy="542.23517"
         sodipodi:cx="260.61935"
         id="path3896"
         style="fill:none;stroke:#4d4d4d"
         sodipodi:type="arc" />
    </g>
  </g>
</svg>
